<mxfile host="app.diagrams.net" modified="2022-11-11T19:41:41.212Z" agent="5.0 (Windows NT 10.0; Win64; x64) AppleWebKit/537.36 (KHTML, like Gecko) Chrome/107.0.0.0 Safari/537.36" etag="f4UoNUzmGt7h-u6ctolJ" version="20.5.3" type="github">
  <diagram id="p7nNI-kVD2HOdl3meLw5" name="Страница 1">
    <mxGraphModel dx="1422" dy="737" grid="1" gridSize="10" guides="1" tooltips="1" connect="1" arrows="1" fold="1" page="1" pageScale="1" pageWidth="827" pageHeight="1169" math="0" shadow="0">
      <root>
        <mxCell id="0" />
        <mxCell id="1" parent="0" />
        <mxCell id="vWxZjATGIZU38iy8g9L4-1" value="User" style="swimlane;fontStyle=0;childLayout=stackLayout;horizontal=1;startSize=26;fillColor=none;horizontalStack=0;resizeParent=1;resizeParentMax=0;resizeLast=0;collapsible=1;marginBottom=0;" vertex="1" parent="1">
          <mxGeometry x="350" y="330" width="140" height="140" as="geometry" />
        </mxCell>
        <mxCell id="vWxZjATGIZU38iy8g9L4-2" value="id&#xa;&#xa;" style="text;strokeColor=none;fillColor=none;align=left;verticalAlign=top;spacingLeft=4;spacingRight=4;overflow=hidden;rotatable=0;points=[[0,0.5],[1,0.5]];portConstraint=eastwest;" vertex="1" parent="vWxZjATGIZU38iy8g9L4-1">
          <mxGeometry y="26" width="140" height="26" as="geometry" />
        </mxCell>
        <mxCell id="vWxZjATGIZU38iy8g9L4-3" value="name" style="text;strokeColor=none;fillColor=none;align=left;verticalAlign=top;spacingLeft=4;spacingRight=4;overflow=hidden;rotatable=0;points=[[0,0.5],[1,0.5]];portConstraint=eastwest;" vertex="1" parent="vWxZjATGIZU38iy8g9L4-1">
          <mxGeometry y="52" width="140" height="26" as="geometry" />
        </mxCell>
        <mxCell id="vWxZjATGIZU38iy8g9L4-4" value="email&#xa;&#xa;password" style="text;strokeColor=none;fillColor=none;align=left;verticalAlign=top;spacingLeft=4;spacingRight=4;overflow=hidden;rotatable=0;points=[[0,0.5],[1,0.5]];portConstraint=eastwest;" vertex="1" parent="vWxZjATGIZU38iy8g9L4-1">
          <mxGeometry y="78" width="140" height="62" as="geometry" />
        </mxCell>
        <mxCell id="vWxZjATGIZU38iy8g9L4-5" value="Freelancer" style="swimlane;fontStyle=0;childLayout=stackLayout;horizontal=1;startSize=26;fillColor=none;horizontalStack=0;resizeParent=1;resizeParentMax=0;resizeLast=0;collapsible=1;marginBottom=0;" vertex="1" parent="1">
          <mxGeometry x="50" y="60" width="140" height="550" as="geometry" />
        </mxCell>
        <mxCell id="vWxZjATGIZU38iy8g9L4-7" value="&#39;image&#39;,&#xa;&#39;firstname&#39;,&#xa;&#39;lastname&#39;,&#xa;&#39;email&#39;,&#xa;&#39;phone&#39;,&#xa;&#39;country&#39;,&#xa;&#39;region&#39;,&#xa;&#39;street&#39;,&#xa;&#39;position&#39;,&#xa;&#39;birth&#39;,&#xa;&#39;skills&#39;,&#xa;&#39;hobbies&#39;,&#xa;&#39;describe&#39;,&#xa;&#39;language&#39;,&#xa;&#39;level_language&#39;,&#xa;&#39;company_name&#39;,&#xa;&#39;job&#39;,&#xa;&#39;current_moment_work&#39;,&#xa;&#39;date_from_work&#39;,&#xa;&#39;to_date_work&#39;,&#xa;&#39;description_work&#39;,&#xa;&#39;school_name&#39;,&#xa;&#39;school_degree&#39;,&#xa;&#39;type_of_study&#39;,&#xa;&#39;location_school&#39;,&#xa;&#39;from_date_school&#39;,&#xa;&#39;to_date_school&#39;,&#xa;&#39;current_moment_school&#39;,&#xa;&#39;web_link&#39;,&#xa;&#39;whatsapp_link&#39;,&#xa;&#39;facebook_link&#39;,&#xa;&#39;instagram_link&#39;,&#xa;&#39;telegram_link&#39;,&#xa;&#39;github_link&#39;,&#xa;&#39;twitter_link&#39;,&#xa;&#39;user_id&#39;" style="text;strokeColor=none;fillColor=none;align=left;verticalAlign=top;spacingLeft=4;spacingRight=4;overflow=hidden;rotatable=0;points=[[0,0.5],[1,0.5]];portConstraint=eastwest;" vertex="1" parent="vWxZjATGIZU38iy8g9L4-5">
          <mxGeometry y="26" width="140" height="524" as="geometry" />
        </mxCell>
        <mxCell id="vWxZjATGIZU38iy8g9L4-9" value="" style="endArrow=classic;html=1;rounded=0;exitX=1.014;exitY=0.939;exitDx=0;exitDy=0;exitPerimeter=0;edgeStyle=orthogonalEdgeStyle;curved=1;" edge="1" parent="1" source="vWxZjATGIZU38iy8g9L4-7">
          <mxGeometry width="50" height="50" relative="1" as="geometry">
            <mxPoint x="390" y="410" as="sourcePoint" />
            <mxPoint x="340" y="370" as="targetPoint" />
          </mxGeometry>
        </mxCell>
        <mxCell id="vWxZjATGIZU38iy8g9L4-10" value="Freelancer" style="swimlane;fontStyle=0;childLayout=stackLayout;horizontal=1;startSize=26;fillColor=none;horizontalStack=0;resizeParent=1;resizeParentMax=0;resizeLast=0;collapsible=1;marginBottom=0;" vertex="1" parent="1">
          <mxGeometry x="660" y="60" width="140" height="280" as="geometry" />
        </mxCell>
        <mxCell id="vWxZjATGIZU38iy8g9L4-11" value="&#39;firstname&#39;,&#xa;&#39;lastname&#39;,&#xa;&#39;email&#39;,&#xa;&#39;phone&#39;,&#xa;&#39;image&#39;,&#xa;&#39;company_name&#39;,&#xa;&#39;company_phone&#39;,&#xa;&#39;location&#39;,&#xa;&#39;description&#39;,&#xa;&#39;web_link&#39;,&#xa;&#39;whatsapp_link&#39;,&#xa;&#39;facebook_link&#39;,&#xa;&#39;instagram_link&#39;,&#xa;&#39;telegram_link&#39;,&#xa;&#39;github_link&#39;,&#xa;&#39;twitter_link&#39;,&#xa;&#39;company_id&#39;" style="text;strokeColor=none;fillColor=none;align=left;verticalAlign=top;spacingLeft=4;spacingRight=4;overflow=hidden;rotatable=0;points=[[0,0.5],[1,0.5]];portConstraint=eastwest;" vertex="1" parent="vWxZjATGIZU38iy8g9L4-10">
          <mxGeometry y="26" width="140" height="254" as="geometry" />
        </mxCell>
        <mxCell id="vWxZjATGIZU38iy8g9L4-12" value="" style="endArrow=classic;html=1;rounded=0;curved=1;exitX=-0.021;exitY=0.941;exitDx=0;exitDy=0;exitPerimeter=0;entryX=1;entryY=0.5;entryDx=0;entryDy=0;" edge="1" parent="1" source="vWxZjATGIZU38iy8g9L4-11" target="vWxZjATGIZU38iy8g9L4-2">
          <mxGeometry width="50" height="50" relative="1" as="geometry">
            <mxPoint x="610" y="360" as="sourcePoint" />
            <mxPoint x="650" y="330" as="targetPoint" />
            <Array as="points">
              <mxPoint x="540" y="330" />
            </Array>
          </mxGeometry>
        </mxCell>
        <mxCell id="vWxZjATGIZU38iy8g9L4-13" value="Talants" style="swimlane;fontStyle=0;childLayout=stackLayout;horizontal=1;startSize=26;fillColor=none;horizontalStack=0;resizeParent=1;resizeParentMax=0;resizeLast=0;collapsible=1;marginBottom=0;" vertex="1" parent="1">
          <mxGeometry x="240" y="60" width="140" height="120" as="geometry" />
        </mxCell>
        <mxCell id="vWxZjATGIZU38iy8g9L4-15" value="&#39;firstname&#39;,&#xa;&#39;lastname&#39;,&#xa;&#39;position&#39;,&#xa;&#39;price&#39;,&#xa;&#39;current_work_hour&#39;,&#xa;&#39;user_id&#39;" style="text;strokeColor=none;fillColor=none;align=left;verticalAlign=top;spacingLeft=4;spacingRight=4;overflow=hidden;rotatable=0;points=[[0,0.5],[1,0.5]];portConstraint=eastwest;" vertex="1" parent="vWxZjATGIZU38iy8g9L4-13">
          <mxGeometry y="26" width="140" height="94" as="geometry" />
        </mxCell>
        <mxCell id="vWxZjATGIZU38iy8g9L4-17" value="" style="endArrow=classic;html=1;rounded=0;curved=1;exitX=0.129;exitY=1.053;exitDx=0;exitDy=0;exitPerimeter=0;" edge="1" parent="1" source="vWxZjATGIZU38iy8g9L4-15">
          <mxGeometry width="50" height="50" relative="1" as="geometry">
            <mxPoint x="390" y="410" as="sourcePoint" />
            <mxPoint x="340" y="350" as="targetPoint" />
          </mxGeometry>
        </mxCell>
        <mxCell id="vWxZjATGIZU38iy8g9L4-18" value="Talants" style="swimlane;fontStyle=0;childLayout=stackLayout;horizontal=1;startSize=26;fillColor=none;horizontalStack=0;resizeParent=1;resizeParentMax=0;resizeLast=0;collapsible=1;marginBottom=0;" vertex="1" parent="1">
          <mxGeometry x="240" y="60" width="140" height="120" as="geometry" />
        </mxCell>
        <mxCell id="vWxZjATGIZU38iy8g9L4-19" value="&#39;firstname&#39;,&#xa;&#39;lastname&#39;,&#xa;&#39;position&#39;,&#xa;&#39;price&#39;,&#xa;&#39;current_work_hour&#39;,&#xa;&#39;user_id&#39;" style="text;strokeColor=none;fillColor=none;align=left;verticalAlign=top;spacingLeft=4;spacingRight=4;overflow=hidden;rotatable=0;points=[[0,0.5],[1,0.5]];portConstraint=eastwest;" vertex="1" parent="vWxZjATGIZU38iy8g9L4-18">
          <mxGeometry y="26" width="140" height="94" as="geometry" />
        </mxCell>
        <mxCell id="vWxZjATGIZU38iy8g9L4-20" value="Talants" style="swimlane;fontStyle=0;childLayout=stackLayout;horizontal=1;startSize=26;fillColor=none;horizontalStack=0;resizeParent=1;resizeParentMax=0;resizeLast=0;collapsible=1;marginBottom=0;" vertex="1" parent="1">
          <mxGeometry x="414" y="60" width="140" height="240" as="geometry" />
        </mxCell>
        <mxCell id="vWxZjATGIZU38iy8g9L4-21" value="&#39;id&#39;&#xa;&#39;name&#39;,&#xa;&#39;category&#39;,&#xa;&#39;description&#39;,&#xa;&#39;image&#39;,&#xa;&#39;skills&#39;,&#xa;&#39;skill_level&#39;,&#xa;&#39;languages&#39;,&#xa;&#39;payment&#39;,&#xa;&#39;payment_currency&#39;,&#xa;&#39;payment_type&#39;,&#xa;&#39;project_period&#39;,&#xa;&#39;project_period_type&#39;,&#xa;&#39;user_id&#39;" style="text;strokeColor=none;fillColor=none;align=left;verticalAlign=top;spacingLeft=4;spacingRight=4;overflow=hidden;rotatable=0;points=[[0,0.5],[1,0.5]];portConstraint=eastwest;" vertex="1" parent="vWxZjATGIZU38iy8g9L4-20">
          <mxGeometry y="26" width="140" height="214" as="geometry" />
        </mxCell>
        <mxCell id="vWxZjATGIZU38iy8g9L4-22" value="" style="endArrow=classic;html=1;rounded=0;curved=1;exitX=-0.021;exitY=0.949;exitDx=0;exitDy=0;exitPerimeter=0;" edge="1" parent="1" source="vWxZjATGIZU38iy8g9L4-21">
          <mxGeometry width="50" height="50" relative="1" as="geometry">
            <mxPoint x="390" y="410" as="sourcePoint" />
            <mxPoint x="340" y="360" as="targetPoint" />
            <Array as="points">
              <mxPoint x="270" y="290" />
            </Array>
          </mxGeometry>
        </mxCell>
      </root>
    </mxGraphModel>
  </diagram>
</mxfile>
